<?xml version="1.0" encoding="utf-8"?>
<!-- Generator: Adobe Illustrator 25.0.0, SVG Export Plug-In . SVG Version: 6.00 Build 0)  -->
<svg version="1.1" id="Layer_1" xmlns="http://www.w3.org/2000/svg" xmlns:xlink="http://www.w3.org/1999/xlink" x="0px" y="0px"
	 viewBox="0 0 1366 1307" style="enable-background:new 0 0 1366 1307;" xml:space="preserve">
<style type="text/css">
	.st0{fill:none;stroke:#A5ADBA;stroke-linecap:round;stroke-miterlimit:10;stroke-dasharray:1,1;}
</style>
<path class="st0" d="M1092.79,21.01L891.29,293.13"/>
<path class="st0" d="M1240.82,214.17l-271.4,177.72"/>
<path class="st0" d="M1321.79,453.37l-308.67,61.47"/>
<path class="st0" d="M1325.9,709.17l-308.92-61.77"/>
<path class="st0" d="M1252.14,951.28l-271.4-177.72"/>
<path class="st0" d="M1110.01,1150.27L908.51,877.86"/>
<path class="st0" d="M916.48,1282.25L809.31,948.08"/>
<path class="st0" d="M683.63,1204.46v-229"/>
<path class="st0" d="M471.6,1290.99l107.43-334.17"/>
<path class="st0" d="M274.21,1166.59l201.49-272.12"/>
<path class="st0" d="M125.92,973.42L397.58,795.7"/>
<path class="st0" d="M44.96,734.52l308.93-61.77"/>
<path class="st0" d="M41.1,478.42l308.92,61.77"/>
<path class="st0" d="M114.61,236.32l271.66,177.72"/>
<path class="st0" d="M256.73,37.33l201.75,272.41"/>
<path class="st0" d="M676.5,236.5V7.5"/>
</svg>
