<?xml version="1.0" encoding="utf-8"?>
<!-- Generator: Adobe Illustrator 25.0.0, SVG Export Plug-In . SVG Version: 6.00 Build 0)  -->
<svg version="1.1" id="Layer_1" xmlns="http://www.w3.org/2000/svg" xmlns:xlink="http://www.w3.org/1999/xlink" x="0px" y="0px"
	 viewBox="0 0 330 330" style="enable-background:new 0 0 330 330;" xml:space="preserve">
<style type="text/css">
	.st0{opacity:0.6;}
	.st1{clip-path:url(#SVGID_2_);}
	.st2{fill:#C5E9DA;stroke:#36B37E;stroke-width:2.2914;stroke-linejoin:round;stroke-miterlimit:10;}
	.st3{fill:#FFFFFF;stroke:#36B37E;stroke-width:2.2914;stroke-linejoin:round;stroke-miterlimit:10;}
	.st4{fill:#644DF2;}
	.st5{fill:#36B37E;}
	.st6{fill:#172B4D;}
</style>
<g class="st0">
	<defs>
		
			<rect id="SVGID_1_" x="18.11" y="-8.15" transform="matrix(0.9647 -0.2633 0.2633 0.9647 -37.3273 50.3736)" class="st0" width="302.38" height="345.23"/>
	</defs>
	<clipPath id="SVGID_2_">
		<use xlink:href="#SVGID_1_"  style="overflow:visible;"/>
	</clipPath>
	<g class="st1">
		<path class="st2" d="M2.07,121.82L119.94,0.14l171.74,42.65L173.12,164.44L2.07,121.82z"/>
		<path class="st3" d="M173.12,164.44L291.68,42.79l36.62,167.24L218.03,328.97L173.12,164.44z"/>
		<path class="st3" d="M173.12,164.44l-72.21,63.45l117.11,101.08L173.12,164.44z"/>
		<path class="st3" d="M100.92,227.89L2.07,121.82l171.05,42.62L100.92,227.89z"/>
		<path class="st2" d="M218.03,328.97L45.94,282.58l54.98-54.69L218.03,328.97z"/>
		<path class="st3" d="M2.07,121.82l43.87,160.76l54.98-54.69L2.07,121.82z"/>
		<path class="st4" d="M136.92,196.19l21.86-19.05L136.92,196.19z"/>
		<path class="st5" d="M154.02,159.73l4.75,17.42l14.35-12.71L154.02,159.73z"/>
		<path class="st5" d="M154.02,159.73L270.41,37.54l-29.5-7.28L125,152.54L154.02,159.73z"/>
		<path class="st5" d="M103.19,146.99L219.58,24.81l-29.5-7.28L74.17,139.8L103.19,146.99z"/>
		<path class="st5" d="M103.19,146.99l17.64,64.64l16.08-15.44L125,152.54L103.19,146.99z"/>
		<path class="st5" d="M74.17,139.8l22.91,83.95l-50.4-54.12l-10.77-39.46L74.17,139.8z"/>
		<path class="st6" d="M35.92,130.17l17.84-17.27L19.1,104.1L2.07,121.82L35.92,130.17z"/>
		<path class="st6" d="M90.48,122.73l16.61-17.61l-37.78-9.53L52.23,113.1L90.48,122.73z"/>
		<path class="st6" d="M69.32,95.58l17.84-17.27L52.51,69.5L35.41,87.02L69.32,95.58z"/>
		<path class="st6" d="M96.32,232.53l4.6-4.64l-37.41,59.59l-17.57-4.9L96.32,232.53z"/>
		<path class="st5" d="M303.2,94.89l-21.77,23.53l8.82,37.28l21.19-23.15L303.2,94.89z"/>
		<path class="st6" d="M288.4,148.09l6.09,28.1l-21.19,23.15l-6.57-28.2l-71.15,75.57c0,0,19.47,71.35,22.45,82.27
			c2.98,10.91,110.34-118.73,110.34-118.73l-18.6-84.67L288.4,148.09z"/>
	</g>
</g>
</svg>
