<?xml version="1.0" encoding="utf-8"?>
<!-- Generator: Adobe Illustrator 25.0.0, SVG Export Plug-In . SVG Version: 6.00 Build 0)  -->
<svg version="1.1" id="Layer_1" xmlns="http://www.w3.org/2000/svg" xmlns:xlink="http://www.w3.org/1999/xlink" x="0px" y="0px"
	 viewBox="0 0 158 140" style="enable-background:new 0 0 158 140;" xml:space="preserve">
<style type="text/css">
	.st0{opacity:0.88;}
	.st1{clip-path:url(#SVGID_2_);}
	.st2{fill:#C5E9DA;stroke:#36B37E;stroke-width:1.1125;stroke-linejoin:round;stroke-miterlimit:10;}
	.st3{fill:#FFFFFF;stroke:#36B37E;stroke-width:1.1125;stroke-linejoin:round;stroke-miterlimit:10;}
	.st4{fill:#644DF2;}
	.st5{fill:#36B37E;}
	.st6{fill:#172B4D;}
</style>
<g class="st0">
	<g>
		<defs>
			
				<rect id="SVGID_1_" x="10.01" y="-7.38" transform="matrix(0.8901 -0.4559 0.4559 0.8901 -23.5876 43.4783)" width="136.67" height="156.04"/>
		</defs>
		<clipPath id="SVGID_2_">
			<use xlink:href="#SVGID_1_"  style="overflow:visible;"/>
		</clipPath>
		<g class="st1">
			<path class="st2" d="M156.27,73.97l-40.84,64.77l-79.93-2.92l41.15-64.82L156.27,73.97z"/>
			<path class="st3" d="M76.65,71.01L35.5,135.82L3.78,65.25L41.51,2.4L76.65,71.01z"/>
			<path class="st3" d="M76.65,71.01l26.05-34.77L41.51,2.4L76.65,71.01z"/>
			<path class="st3" d="M102.7,36.24l53.57,37.74l-79.62-2.97L102.7,36.24z"/>
			<path class="st2" d="M41.51,2.4l80.43,4.54l-19.24,29.3L41.51,2.4z"/>
			<path class="st3" d="M156.27,73.97L121.94,6.94l-19.24,29.3L156.27,73.97z"/>
			<path class="st4" d="M89.72,53.6l-7.9,10.45L89.72,53.6z"/>
			<path class="st5" d="M85.54,71.32l-3.72-7.26l-5.17,6.95L85.54,71.32z"/>
			<path class="st5" d="M85.54,71.32L45.4,136.17l13.72,0.48L99.04,71.8L85.54,71.32z"/>
			<path class="st5" d="M109.2,72.23l-40.13,64.85l13.72,0.48l39.92-64.85L109.2,72.23z"/>
			<path class="st5" d="M109.2,72.23L95.4,45.28l-5.68,8.32l9.32,18.2L109.2,72.23z"/>
			<path class="st5" d="M122.71,72.72l-17.93-35l27.32,19.26l8.43,16.45L122.71,72.72z"/>
			<path class="st6" d="M140.52,73.42l-6.29,9.29l16.14,0.68l5.89-9.42L140.52,73.42z"/>
			<path class="st6" d="M117.08,81.78l-5.71,9.33l17.6,0.71l5.93-9.34L117.08,81.78z"/>
			<path class="st6" d="M128.96,91.83l-6.29,9.29l16.15,0.68l5.93-9.34L128.96,91.83z"/>
			<path class="st6" d="M104.3,33.76l-1.6,2.48L113.71,6.4l8.23,0.54L104.3,33.76z"/>
			<path class="st5" d="M25.57,113.85l7.44-12.43l-7.36-15.67l-7.23,12.21L25.57,113.85z"/>
			<path class="st6" d="M27.18,88.94l-5.3-11.87l7.23-12.21l5.52,11.86L59.08,36.7c0,0-15.24-29.75-17.57-34.3
				C39.18-2.15,3.73,65.16,3.73,65.16l16.09,35.73L27.18,88.94z"/>
		</g>
	</g>
</g>
</svg>
