<?xml version="1.0" encoding="utf-8"?>
<!-- Generator: Adobe Illustrator 25.0.0, SVG Export Plug-In . SVG Version: 6.00 Build 0)  -->
<svg version="1.1" id="Layer_1" xmlns="http://www.w3.org/2000/svg" xmlns:xlink="http://www.w3.org/1999/xlink" x="0px" y="0px"
	 viewBox="0 0 40 49" style="enable-background:new 0 0 40 49;" xml:space="preserve">
<style type="text/css">
	.st0{clip-path:url(#SVGID_2_);}
	.st1{fill:#C5E9DA;stroke:#36B37E;stroke-width:0.2891;stroke-miterlimit:10;}
	.st2{fill:#36B37E;}
	.st3{fill:#172B4D;}
	.st4{fill:#FFFFFF;stroke:#36B37E;stroke-width:0.2891;stroke-miterlimit:10;}
</style>
<g>
	<defs>
		<rect id="SVGID_1_" x="-3.76" y="5.51" transform="matrix(0.866 -0.5 0.5 0.866 -9.6649 13.5471)" width="48.42" height="38.59"/>
	</defs>
	<clipPath id="SVGID_2_">
		<use xlink:href="#SVGID_1_"  style="overflow:visible;"/>
	</clipPath>
	<g class="st0">
		<path class="st1" d="M1.16,36.19L20.54,3.04c0,0,3.73-4.93,12.05-0.52c8.32,4.41,6.43,9.98,6.43,9.98L20.07,46.91
			c0,0-3.64,4.1-11.33,0.2C-0.21,42.59,1.16,36.19,1.16,36.19z"/>
		<path class="st2" d="M1.17,36.19c0,0,2.76-4.7,12.23,0.08c8.87,4.49,6.67,10.63,6.67,10.63s-3.97,3.99-11.33,0.2
			C1.37,43.32,1.15,38.6,1.17,36.19z"/>
		<path class="st3" d="M18.99,5.67c0,0,4.67,2.94,8.01,10.86c3.55,8.4,2.5,13.24,2.5,13.24l3.82-6.91c0,0,0.69-3.6-3.6-12.37
			c-3.5-7.16-6.86-9.16-6.86-9.16l-2.33,1.75L18.99,5.67z"/>
		<path class="st2" d="M12.23,17.42c0,0,4.19,2.86,7.17,11.49c2.98,8.63,2.59,14.6,2.59,14.6l3.82-6.91c0,0,0.6-5.55-2.78-13.32
			c-3.15-7.19-7.63-11.25-7.63-11.25l-2.49,4.24L12.23,17.42z"/>
		<path class="st3" d="M13.4,36.27c0,0,0.52-9.11-3.89-14.38l-3.45,5.93c0,0,1.07,2.66,0.55,6.33C6.6,34.16,10.85,35.04,13.4,36.27z
			"/>
		<path class="st4" d="M9.87,39.81l1.52,1.13l6.85-0.51c0,0-1.88-2.62-4.83-4.15l-3.36,1.47L9.87,39.81z"/>
		<path class="st4" d="M3.23,34.73c0,0-1.66,0.42-2.09,1.47l8.07,5.36c0,0,0.62-1.93,0.88-2.41c0.28-0.5,0.76-1.41,0.76-1.41
			l-2.26-3.34C8.61,34.4,5.9,33.29,3.23,34.73z"/>
		<path class="st2" d="M30.65,1.64c0,0,3.57,4.85,4.78,10.83c1.14,5.55,0.27,6.08,0.27,6.08l3.31-6.05c0,0,0.82-2.57-1.21-5.74
			C35.78,3.59,30.65,1.64,30.65,1.64z"/>
		<path class="st4" d="M10.11,39.14c0,0-2.56,0.48-3.42,1.01c-0.86,0.53-1.13,0.65-1.13,0.65l2.18,1.18l1.49-0.43L10.11,39.14z"/>
		<path class="st4" d="M11.4,40.97l-0.35,1.7l5,5.99c0,0,0.62,0.14,2.66-0.77l0.85-0.56l-6.99-7.08
			C12.57,40.29,11.57,40.1,11.4,40.97z"/>
		<path class="st4" d="M11.4,40.97c0,0,4.03,2.18,3.95,2.09c-0.08-0.09-2.28-3.42-2.28-3.42S11.35,39.79,11.4,40.97z"/>
	</g>
</g>
</svg>
