<?xml version="1.0" encoding="utf-8"?>
<!-- Generator: Adobe Illustrator 25.0.0, SVG Export Plug-In . SVG Version: 6.00 Build 0)  -->
<svg version="1.1" id="Layer_1" xmlns="http://www.w3.org/2000/svg" xmlns:xlink="http://www.w3.org/1999/xlink" x="0px" y="0px"
	 viewBox="0 0 124 100" style="enable-background:new 0 0 124 100;" xml:space="preserve">
<style type="text/css">
	.st0{opacity:0.48;clip-path:url(#SVGID_2_);}
	.st1{fill:#C5E9DA;stroke:#36B37E;stroke-width:0.7368;stroke-miterlimit:10;}
	.st2{fill:#36B37E;}
	.st3{fill:#172B4D;}
	.st4{fill:#FFFFFF;stroke:#36B37E;stroke-width:0.7368;stroke-miterlimit:10;}
</style>
<g>
	<defs>
		
			<rect id="SVGID_1_" x="13.12" y="-10.6" transform="matrix(0.8752 -0.4837 0.4837 0.8752 -16.9471 36.5078)" width="98.36" height="123.41"/>
	</defs>
	<clipPath id="SVGID_2_">
		<use xlink:href="#SVGID_1_"  style="overflow:visible;"/>
	</clipPath>
	<g class="st0">
		<path class="st1" d="M34.21,1.43l83.55,50.97c0,0,12.37,9.75,0.74,30.74c-11.63,20.99-25.73,15.9-25.73,15.9L6.01,49.09
			c0,0-10.28-9.47,0.03-28.89C17.96-2.39,34.21,1.43,34.21,1.43z"/>
		<path class="st2" d="M34.21,1.43c0,0,11.84,7.26-0.79,31.16C21.55,54.98,6.01,49.09,6.01,49.09S-3.98,38.78,6.03,20.2
			C16.05,1.62,28.07,1.29,34.21,1.43z"/>
		<path class="st3" d="M111.14,48.32c0,0-7.73,11.76-28.07,19.89c-21.57,8.64-33.86,5.75-33.86,5.75l17.43,10.06
			c0,0,9.15,1.93,31.7-8.59c18.41-8.57,23.67-17.04,23.67-17.04l-4.34-6.02L111.14,48.32z"/>
		<path class="st2" d="M81.52,30.51c0,0-7.48,10.53-29.61,17.71c-22.13,7.18-37.32,5.89-37.32,5.89l17.43,10.06
			c0,0,14.12,1.79,34.06-6.45c18.48-7.69,29.03-18.91,29.03-18.91l-10.69-6.55L81.52,30.51z"/>
		<path class="st3" d="M33.42,32.59c0,0,23.19,1.75,36.82-9.23l-14.95-9.08c0,0-6.82,2.59-16.15,1.09
			C39.14,15.37,36.68,26.16,33.42,32.59z"/>
		<path class="st4" d="M24.57,23.43l-2.94,3.81l0.98,17.47c0,0,6.77-4.66,10.81-12.12l-3.59-8.62L24.57,23.43z"/>
		<path class="st4" d="M37.83,6.76c0,0-1-4.25-3.65-5.39l-14.04,20.3c0,0,4.88,1.68,6.1,2.35c1.25,0.74,3.54,2,3.54,2l8.61-5.6
			C38.43,20.48,41.38,13.63,37.83,6.76z"/>
		<path class="st2" d="M120.85,78.22c0,0-12.53,8.86-27.81,11.67c-14.2,2.63-15.52,0.41-15.52,0.41l15.27,8.74
			c0,0,6.52,2.21,14.69-2.82C115.64,91.2,120.85,78.22,120.85,78.22z"/>
		<path class="st4" d="M26.28,24.08c0,0-1.09-6.55-2.41-8.77c-1.31-2.22-1.6-2.9-1.6-2.9l-3.1,5.5l1.01,3.82L26.28,24.08z"/>
		<path class="st4" d="M21.56,27.28l-4.33-0.98L1.72,38.75c0,0-0.4,1.57,1.83,6.82l1.38,2.19L23.3,30.27
			C23.24,30.31,23.76,27.75,21.56,27.28z"/>
		<path class="st4" d="M21.56,27.28c0,0-5.75,10.16-5.53,9.96c0.22-0.21,8.84-5.64,8.84-5.64S24.56,27.22,21.56,27.28z"/>
	</g>
</g>
</svg>
