<?xml version="1.0" encoding="utf-8"?>
<!-- Generator: Adobe Illustrator 25.0.0, SVG Export Plug-In . SVG Version: 6.00 Build 0)  -->
<svg version="1.1" id="Layer_1" xmlns="http://www.w3.org/2000/svg" xmlns:xlink="http://www.w3.org/1999/xlink" x="0px" y="0px"
	 viewBox="0 0 158 211" style="enable-background:new 0 0 158 211;" xml:space="preserve">
<style type="text/css">
	.st0{clip-path:url(#SVGID_2_);}
	.st1{fill:#FFFFFF;stroke:#36B37E;stroke-width:1.439;stroke-linejoin:round;stroke-miterlimit:10;}
	.st2{fill:#36B37E;}
	.st3{fill:#C5E9DA;}
	.st4{fill:#C5E9DA;filter:url(#Adobe_OpacityMaskFilter);}
	.st5{mask:url(#mask0_34_2186_1_);}
	.st6{fill:#172B4D;}
	.st7{fill:none;stroke:#36B37E;stroke-width:1.439;stroke-linejoin:round;stroke-miterlimit:10;}
	.st8{fill:none;stroke:#FFFFFF;stroke-width:1.439;stroke-linejoin:round;stroke-miterlimit:10;}
</style>
<g>
	<defs>
		
			<rect id="SVGID_1_" x="2" y="-3.69" transform="matrix(0.3764 -0.9265 0.9265 0.3764 -26.9772 169.5391)" width="220.88" height="217"/>
	</defs>
	<clipPath id="SVGID_2_">
		<use xlink:href="#SVGID_1_"  style="overflow:visible;"/>
	</clipPath>
	<g class="st0">
		<path class="st1" d="M0.65,93.64l148.7-92.27c0,0-119.26,188.42-121.26,187.6C28.09,188.97,9.54,119.15,0.65,93.64z"/>
		<path class="st2" d="M149.35,1.37l4.48,6.17c0,0,4.83,194.56,4.53,196.46c-0.3,1.9,2.68,3.73-2,4.93
			c-4.68,1.2-87.61-11.83-108-15.92c-20.26-4.04-20.26-4.04-20.26-4.04L149.35,1.37z"/>
		<path class="st3" d="M57.09,82.4l36.4,97.73l62.31-33.71l-2.5-102.44L57.09,82.4z"/>
		<defs>
			<filter id="Adobe_OpacityMaskFilter" filterUnits="userSpaceOnUse" x="33.73" y="72.12" width="158.64" height="116.21">
				<feColorMatrix  type="matrix" values="1 0 0 0 0  0 1 0 0 0  0 0 1 0 0  0 0 0 1 0"/>
			</filter>
		</defs>
		<mask maskUnits="userSpaceOnUse" x="33.73" y="72.12" width="158.64" height="116.21" id="mask0_34_2186_1_">
			<path class="st4" d="M57.57,83.1l36.4,97.73l62.31-33.71l-2.5-102.44L57.57,83.1z"/>
		</mask>
		<g class="st5">
			<path class="st2" d="M146.88,142.47l-16.66-3.35l-0.38,21.59l-17.91-2.93l-1.14,23.46l18.59,2.43l17.68,2.37l16.77,2.31
				l-0.68-22.02l-16.29-2.73L146.88,142.47z"/>
			<path class="st2" d="M112.8,135.77l17.43,3.35l0.35-20.36l-16.76-3.86L112.8,135.77z"/>
			<path class="st2" d="M94.57,132.09l-1.54,22.52l18.9,3.17l0.87-22.01L94.57,132.09z"/>
			<path class="st2" d="M94.57,132.09l1.45-21.16l-18.66-4.16l-2.07,21.53L94.57,132.09z"/>
			<path class="st2" d="M75.29,128.3l-20.13-3.98l-3.01,23.47l-3.21,25.1l21.79,2.95l20.61,2.78l1.68-24.01l-19.94-3.29L75.29,128.3
				z"/>
			<path class="st2" d="M192.37,151.32l-1.34-18.87l-14.07-3.23l-14.79-3.37l-0.49-18.68l-14.94-3.74l-15.66-3.88l-0.5,19.21
				l16.23,3.64l0.08,20.07l15.86,3.02l0.4,20.82l15.56,2.6l-0.88-20.39L192.37,151.32z"/>
			<path class="st2" d="M175.34,93.46l-14.11-3.87l0.47,17.59l14.49,3.71L175.34,93.46z"/>
			<path class="st2" d="M114.62,95.35l16.47,4.2l0.31-18.36l-15.9-4.44l-16.76-4.63l-1.3,18.88l-1.42,19.93l17.8,3.97L114.62,95.35z
				"/>
			<path class="st2" d="M79.39,86.48l-18.84-4.86l-2.65,20.67l19.46,4.49L79.39,86.48z"/>
			<path class="st2" d="M37.27,97.63l-3.54,22.48l21.44,4.2l2.74-22.03L37.27,97.63z"/>
		</g>
		<path class="st6" d="M57.09,82.4l53.77-21.49l-38.76,61.76L57.09,82.4z"/>
		<path class="st7" d="M27.73,76.68l-11.64,68.43"/>
		<path class="st6" d="M25.3,91.07l-4.65-9.96l7.08-4.43L25.3,91.07z"/>
		<path class="st7" d="M121.09,18.93l14.38,3.98"/>
		<path class="st8" d="M67.38,112.52l35.46,89.74"/>
	</g>
</g>
</svg>
