<?xml version="1.0" encoding="utf-8"?>
<!-- Generator: Adobe Illustrator 25.0.0, SVG Export Plug-In . SVG Version: 6.00 Build 0)  -->
<svg version="1.1" id="Layer_1" xmlns="http://www.w3.org/2000/svg" xmlns:xlink="http://www.w3.org/1999/xlink" x="0px" y="0px"
	 viewBox="0 0 176 195" style="enable-background:new 0 0 176 195;" xml:space="preserve">
<style type="text/css">
	.st0{clip-path:url(#SVGID_2_);}
	.st1{fill:#C5E9DA;stroke:#36B37E;stroke-width:0.6464;stroke-linejoin:round;stroke-miterlimit:10;}
	.st2{fill:#36B37E;}
	.st3{fill:none;stroke:#36B37E;stroke-width:0.6464;stroke-miterlimit:10;}
	.st4{fill:#FFFFFF;stroke:#36B37E;stroke-width:0.6464;}
	.st5{fill:#172B4D;}
</style>
<g>
	<defs>
		<polygon id="SVGID_1_" points="138.47,237 -58.14,110.15 33.39,-12.47 230,114.38 		"/>
	</defs>
	<clipPath id="SVGID_2_">
		<use xlink:href="#SVGID_1_"  style="overflow:visible;"/>
	</clipPath>
	<g class="st0">
		<path class="st1" d="M169.31,194.21L51.01,179.62l-49.4-44.55L8.16,22.54L24.23,1.01l35.84,4.66l115.59,115.8L169.31,194.21z"/>
		<path class="st2" d="M91.05,184.56l-2.73-32.35c0,0-11.95,30.52-16.92,29.93C66.28,181.45,91.05,184.56,91.05,184.56z"/>
		<path class="st3" d="M119.32,188.07l27.11-95.72"/>
		<path class="st3" d="M139.6,116.29l-2.03-33.02"/>
		<path class="st4" d="M7.6,46.2l48.35,29.2l11.97,13.03l-12.55,8.73L6.75,60.29L7.6,46.2z"/>
		<path class="st3" d="M87.83,167.77l0.36-49.94"/>
		<path class="st5" d="M6.24,55.07l0.47-0.63l14.4,7.05l23.68,20.69l11.71-7.36l3.63-69.1L24.29,1.06L8.22,22.59L6.24,55.07z"/>
		<path class="st5" d="M20.27,62.62L6.27,55.83l-4.61,79.28l49.4,44.55l4.29-81.54l-6.21-9.42L20.27,62.62z"/>
	</g>
</g>
</svg>
