<?xml version="1.0" encoding="utf-8"?>
<!-- Generator: Adobe Illustrator 25.0.0, SVG Export Plug-In . SVG Version: 6.00 Build 0)  -->
<svg version="1.1" id="Layer_1" xmlns="http://www.w3.org/2000/svg" xmlns:xlink="http://www.w3.org/1999/xlink" x="0px" y="0px"
	 viewBox="0 0 323 484" style="enable-background:new 0 0 323 484;" xml:space="preserve">
<style type="text/css">
	.st0{clip-path:url(#SVGID_2_);}
	.st1{fill:#172B4D;}
	.st2{fill:#FFFFFF;}
	.st3{fill:#FFFFFF;filter:url(#Adobe_OpacityMaskFilter);}
	.st4{mask:url(#mask0_34_2614_1_);}
	.st5{fill:#C5E9DA;}
	.st6{fill:#36B37E;}
	.st7{fill:none;stroke:#36B37E;stroke-width:1.5716;stroke-linejoin:round;stroke-miterlimit:10;}
	.st8{fill:#FFFFFF;stroke:#36B37E;stroke-width:1.5716;stroke-linejoin:round;stroke-miterlimit:10;}
</style>
<g>
	<defs>
		
			<rect id="SVGID_1_" x="-26.7" y="14.73" transform="matrix(0.9873 -0.1589 0.1589 0.9873 -36.4918 23.9219)" width="316.16" height="450.96"/>
	</defs>
	<clipPath id="SVGID_2_">
		<use xlink:href="#SVGID_1_"  style="overflow:visible;"/>
	</clipPath>
	<g class="st0">
		<path class="st1" d="M39.77,482.19l181.66-29.23l100.55-16.18l-56.22-58.79L1.43,420.52l8.33,27.54L39.77,482.19z"/>
		<path class="st2" d="M203.11,1.44l54.06,32.55l-150.22,424.1l-67.18,24.1L9.75,448.06l-8.33-27.54l98.59-242.07l23.94-22.19
			l-9.66-22.97l44.36-113.25L203.11,1.44z"/>
		<defs>
			<filter id="Adobe_OpacityMaskFilter" filterUnits="userSpaceOnUse" x="16.16" y="113.25" width="165.66" height="196.09">
				<feColorMatrix  type="matrix" values="1 0 0 0 0  0 1 0 0 0  0 0 1 0 0  0 0 0 1 0"/>
			</filter>
		</defs>
		<mask maskUnits="userSpaceOnUse" x="16.16" y="113.25" width="165.66" height="196.09" id="mask0_34_2614_1_">
			<path class="st3" d="M203.11,1.44l54.06,32.55l-150.22,424.1l-67.18,24.1L9.75,448.06l-8.33-27.54l98.59-242.07l23.94-22.19
				l-9.66-22.97l44.36-113.25L203.11,1.44z"/>
		</mask>
		<g class="st4">
			<path class="st5" d="M92.26,221.41l7.49-21.83l21.04-3.16l7.15-21.09l-20.82,3.12l7.22-20.64l-20.85,2.9l-7.63,20.94l-7.79,21.42
				l-21.93,3.3l-8.35,22.2l-22.75,3.89l-8.87,23.2l23.17-4.19l22.76-3.89l8.05-22.61L92.26,221.41z"/>
			<path class="st6" d="M113.67,217.74l21-3.38l6.89-21.28l-20.78,3.34L113.67,217.74z"/>
			<path class="st6" d="M84.36,243.54l21.86-3.75l7.45-22.05l-21.41,3.68L84.36,243.54z"/>
			<path class="st1" d="M98.61,262.33l21.83-3.97l7.19-22.24l-21.41,3.68L98.61,262.33z"/>
			<path class="st1" d="M76.37,266.6l7.98-23.06l-22.27,4.04l-8.43,23.13l-8.54,23.83l23.09-4.63l22.68-4.34l7.72-23.24L76.37,266.6
				z"/>
			<path class="st6" d="M134.75,154.99l-6.81,20.35l20.37-3.05l-6.74,20.8l20.37-3.05l6.55-20.53l6.18-20.02l-19.74,2.72l6.44-19.83
				l6.32-19.12l-19.58,2.23l-6.51,19.38l-20.18,2.79l-7.07,20.16L134.75,154.99z"/>
			<path class="st1" d="M128.08,117.79l-20.22,2.57l-7.11,19.94l20.66-2.64L128.08,117.79z"/>
			<path class="st6" d="M134.67,214.36l-7.04,21.76l20.97-3.6l20.49-3.75l6.45-21.21l6.29-20.72l-19.89,3.2l-6.48,20.98
				L134.67,214.36z"/>
			<path class="st6" d="M134.69,277.15l7.12-22.69l-21.38,3.9l-7.53,22.98L134.69,277.15z"/>
			<path class="st6" d="M82.79,309.34l22.42-4.52l7.69-23.47l-22.01,4.23L82.79,309.34z"/>
			<path class="st6" d="M100.75,140.29l-20.89,2.67l-7.71,20.49l21.33-2.75L100.75,140.29z"/>
		</g>
		<path class="st5" d="M203.11,1.44L39.77,482.19l67.18-24.1l150.22-424.1L203.11,1.44z"/>
		<path class="st7" d="M203.11,1.44l54.06,32.55l-150.22,424.1l-67.18,24.1L9.75,448.06l-8.33-27.54l98.59-242.07l23.94-22.19
			l-9.66-22.97l44.36-113.25L203.11,1.44z"/>
		<path class="st2" d="M144.88,172.38l20.93,16.11l-27.93,4.49L144.88,172.38z"/>
		<path class="st7" d="M202.65,188.07l-36.84,0.43l-20.93-16.11l-20.93-16.11"/>
		<path class="st7" d="M165.81,188.49l-27.93,4.49l-28.11,83.13"/>
		<path class="st7" d="M238.08,87.71l-46.47-52.34l-43.67,12.07"/>
		<path class="st7" d="M160.86,43.76l-9.19-5.85"/>
		<path class="st8" d="M102.77,296.73l-36.26-35.88L1.43,420.52l8.33,27.54l30.02,34.13L102.77,296.73z"/>
		<path class="st1" d="M157.83,316.97l-59.26-7.88l-4.76-21.01l11.13,5.08L157.83,316.97z"/>
	</g>
</g>
</svg>
