<?xml version="1.0" encoding="utf-8"?>
<!-- Generator: Adobe Illustrator 25.0.0, SVG Export Plug-In . SVG Version: 6.00 Build 0)  -->
<svg version="1.1" id="Layer_1" xmlns="http://www.w3.org/2000/svg" xmlns:xlink="http://www.w3.org/1999/xlink" x="0px" y="0px"
	 viewBox="0 0 182 245" style="enable-background:new 0 0 182 245;" xml:space="preserve">
<style type="text/css">
	.st0{clip-path:url(#SVGID_2_);}
	.st1{fill:#172B4D;}
	.st2{fill:#FFFFFF;stroke:#36B37E;stroke-width:1.5576;stroke-linejoin:round;stroke-miterlimit:10;}
	.st3{fill:#C5E9DA;stroke:#36B37E;stroke-width:1.5576;stroke-linejoin:round;stroke-miterlimit:10;}
	.st4{fill:none;stroke:#36B37E;stroke-width:1.5576;stroke-linejoin:round;stroke-miterlimit:10;}
	.st5{fill:#C5E9DA;filter:url(#Adobe_OpacityMaskFilter);}
	.st6{fill:#36B37E;}
	.st7{fill:#5E78A5;}
	.st8{mask:url(#mask0_34_2644_1_);}
	.st9{fill:#36B37E;stroke:#36B37E;stroke-width:1.5576;stroke-linejoin:round;stroke-miterlimit:10;}
</style>
<g>
	<defs>
		
			<rect id="SVGID_1_" x="-39.64" y="-23.23" transform="matrix(0.7075 -0.7068 0.7068 0.7075 -52.9242 86.777)" width="236" height="261.09"/>
	</defs>
	<clipPath id="SVGID_2_">
		<use xlink:href="#SVGID_1_"  style="overflow:visible;"/>
	</clipPath>
	<g class="st0">
		<path class="st1" d="M179.22,173.36l-97.64,4.29c-0.36,0-0.9,0.18-1.26,0.54l-32.56,32.53c-0.36,0.36-0.54,0.9-0.55,1.62
			l1.37,31.04c0,1.08,0.9,1.98,2.16,1.8l83.75-9.14c0.54-0.18,1.08-0.36,1.45-0.72l18.11-27.45l0.18-0.18l26.78-31.08
			C181.92,175.34,180.84,173.18,179.22,173.36z"/>
		<path class="st2" d="M139.79,1.85L29.85,10.5L1.36,54.45l27.41,115.56l32.45,25.2l63.76-5l11.59-33.18l32.79-36L139.79,1.85z"/>
		<path class="st3" d="M136.56,157.02L78.48,53.73l61.3-51.88l29.56,119.17L136.56,157.02z"/>
		<path class="st2" d="M124.97,190.2l-14.75-80.31l26.35,47.13L124.97,190.2z"/>
		<path class="st4" d="M1.36,54.45l77.13-0.72"/>
		<path class="st3" d="M92.86,41.53l-21.19,1.73l-6.21,10.53l23.07,17.64L92.86,41.53z"/>
		<defs>
			<filter id="Adobe_OpacityMaskFilter" filterUnits="userSpaceOnUse" x="0.29" y="1.97" width="139.37" height="53.7">
				<feColorMatrix  type="matrix" values="1 0 0 0 0  0 1 0 0 0  0 0 1 0 0  0 0 0 1 0"/>
			</filter>
		</defs>
		<mask maskUnits="userSpaceOnUse" x="0.29" y="1.97" width="139.37" height="53.7" id="mask0_34_2644_1_">
			<path class="st5" d="M47.32,31.21l14.43,4.31l9.59-9.94l13.7,4.31l-9.59,9.58l13.52,4.13l-9.41,9.76l-13.71-3.95L51.8,45.46
				L41.67,55.58l-14.79-3.95L16.39,62.11L0.88,58.16L11.92,47.5l10.49-10.48l14.79,4.31L47.32,31.21z"/>
			<path class="st6" d="M57.45,21.45l9.77-9.76L80.93,16l-9.59,9.58L57.45,21.45z"/>
			<path class="st7" d="M98.21,34.03l-13.16-4.13l9.23-9.58L80.93,16l9.41-9.4l12.98,4.31l12.62,4.31l-8.68,9.4l12.62,3.95
				l12.44,4.13l-8.5,9.21l-12.62-3.95l-9.23,9.58L88.98,43.6L98.21,34.03z"/>
			<path class="st6" d="M114.95,51.51l-8.87,9.58l-13.16-3.77l9.05-9.76L114.95,51.51z"/>
			<path class="st6" d="M137.06,10.33l-8.5,9.22l-12.62-4.31l8.86-9.22L137.06,10.33z"/>
			<path class="st6" d="M67.22,11.69L53.34,7.2l9.59-9.58l9.77-9.4l13.52,4.49l13.16,4.85l-9.04,9.04L76.81,2.11L67.22,11.69z"/>
			<path class="st6" d="M92.92,57.31l-9.23,9.94L69.8,63.48l9.77-10.12L92.92,57.31z"/>
		</mask>
		<g class="st8">
			<path class="st9" d="M29.33,11.02l109.56-8.27L89.15,43.52l-18.43,1.44l-6.4,9.93L1.07,54.73L29.33,11.02z"/>
		</g>
	</g>
</g>
</svg>
