<?xml version="1.0" encoding="utf-8"?>
<!-- Generator: Adobe Illustrator 25.0.0, SVG Export Plug-In . SVG Version: 6.00 Build 0)  -->
<svg version="1.1" id="Layer_1" xmlns="http://www.w3.org/2000/svg" xmlns:xlink="http://www.w3.org/1999/xlink" x="0px" y="0px"
	 viewBox="0 0 112 74" style="enable-background:new 0 0 112 74;" xml:space="preserve">
<style type="text/css">
	.st0{fill:#172B4D;}
	.st1{clip-path:url(#SVGID_2_);}
	.st2{fill:#FFFFFF;stroke:#36B37E;stroke-width:1.6347;stroke-linejoin:round;stroke-miterlimit:10;}
	.st3{fill:#C5E9DA;stroke:#36B37E;stroke-width:1.6347;stroke-linejoin:round;stroke-miterlimit:10;}
	.st4{fill:#FFFFFF;}
	.st5{fill:none;stroke:#36B37E;stroke-width:1.6347;stroke-linejoin:round;stroke-miterlimit:10;}
	.st6{fill:#172B4D;stroke:#36B37E;stroke-width:1.6347;stroke-linejoin:round;stroke-miterlimit:10;}
	
		.st7{fill:#FFFFFF;filter:url(#Adobe_OpacityMaskFilter);stroke:#36B37E;stroke-width:1.6347;stroke-linejoin:round;stroke-miterlimit:10;}
	.st8{mask:url(#mask0_34_2668_1_);}
	.st9{fill:#36B37E;}
	.st10{fill:#C5E9DA;}
</style>
<path class="st0" d="M14.86,70.5l4.01-8.34c0.1-0.21,0.27-0.38,0.49-0.48l60.69-27.53c0.3-0.13,0.64-0.12,0.92,0.05l30.32,17.68
	c0.77,0.45,0.61,1.61-0.25,1.83L34.26,73.71c-0.11,0.03-0.23,0.04-0.35,0.03l-18.25-1.81C14.97,71.86,14.56,71.12,14.86,70.5z"/>
<g>
	<defs>
		
			<rect id="SVGID_1_" x="-6.35" y="-4.59" transform="matrix(0.9033 -0.429 0.429 0.9033 -7.9657 22.6618)" width="105.27" height="67.18"/>
	</defs>
	<clipPath id="SVGID_2_">
		<use xlink:href="#SVGID_1_"  style="overflow:visible;"/>
	</clipPath>
	<g class="st1">
		<path class="st2" d="M18.49,5.92L1.47,52l19.84,13.2L78.9,37.85l17.66-23.77L54.06,0.79L18.49,5.92z"/>
		<path class="st3" d="M38.52,24.46l1.89,3.99l38.49,9.41l2.63-3.6l15.03-20.17L54.06,0.79L38.52,24.46z"/>
		<path class="st4" d="M54.06,0.79l-13.39,22.1L1.47,52"/>
		<path class="st5" d="M54.06,0.79l-13.39,22.1L1.47,52"/>
		<path class="st6" d="M33.54,28.08l1.82-10.64l10.14-2.65l-5.1,13.64L33.54,28.08z"/>
		<path class="st5" d="M78.9,37.85l-38.49-9.41"/>
		<path class="st2" d="M65.58,34.58l6.69-5.35l-0.72,6.86l-5.12,3.7L65.58,34.58z"/>
		<path class="st5" d="M72.27,29.23L70.62,5.95"/>
		<defs>
			<filter id="Adobe_OpacityMaskFilter" filterUnits="userSpaceOnUse" x="-1.32" y="-4.84" width="77.77" height="83.4">
				<feColorMatrix  type="matrix" values="1 0 0 0 0  0 1 0 0 0  0 0 1 0 0  0 0 0 1 0"/>
			</filter>
		</defs>
		<mask maskUnits="userSpaceOnUse" x="-1.32" y="-4.84" width="77.77" height="83.4" id="mask0_34_2668_1_">
			<path class="st7" d="M1.47,52l32.07-23.92l11.31,1.33l34.05,8.44l-4.13,1.96L21.31,65.2L1.47,52z"/>
		</mask>
		<g class="st8">
			<path class="st9" d="M34.47,39.61l4.39-9.33l9.79-0.35l4.11-8.97l-9.33,0.36l4.3-9.05l-9.6,0.26l-4.3,9.05l-4.67,9.23L19.1,31.07
				l-4.76,9.5L3.91,41l-5.23,9.95l10.61-0.52l10.34-0.61l4.86-9.77L34.47,39.61z"/>
			<path class="st9" d="M44.25,39.26l9.7-0.53l4.02-9.15l-9.33,0.36L44.25,39.26z"/>
			<path class="st10" d="M29.79,49.29l10.07-0.71l4.39-9.33l-9.79,0.35L29.79,49.29z"/>
			<path class="st9" d="M35.19,58.27l9.88-0.62l4.49-9.6l-9.7,0.53L35.19,58.27z"/>
			<path class="st9" d="M25.12,58.98l4.67-9.69l-10.16,0.53l-4.86,9.77L9.72,69.91l10.44-0.89l10.34-0.61l4.68-10.14L25.12,58.98z"
				/>
			<path class="st9" d="M56.96,12.19l-4.2,8.78l9.33-0.36l-4.11,8.97l9.33-0.36l3.93-8.88l3.83-8.61l-8.96,0.18l3.92-8.42l3.73-8.33
				l-8.78,0.1l-3.92,8.42l-9.23,0.09l-4.1,8.51L56.96,12.19z"/>
			<path class="st9" d="M53.95,38.72l-4.39,9.33l9.52-0.45l9.43-0.63l4.02-9.15l3.93-8.88l-9.15,0.27l-4.02,9.15L53.95,38.72z"/>
			<path class="st9" d="M50.55,66.81l4.4-9.78l-9.88,0.62l-4.4,9.78L50.55,66.81z"/>
			<path class="st9" d="M25.82,78.55l10.17-0.98l4.68-10.14L30.5,68.41L25.82,78.55z"/>
		</g>
	</g>
</g>
</svg>
