<?xml version="1.0" encoding="utf-8"?>
<!-- Generator: Adobe Illustrator 25.0.0, SVG Export Plug-In . SVG Version: 6.00 Build 0)  -->
<svg version="1.1" id="Layer_1" xmlns="http://www.w3.org/2000/svg" xmlns:xlink="http://www.w3.org/1999/xlink" x="0px" y="0px"
	 viewBox="0 0 273 246" style="enable-background:new 0 0 273 246;" xml:space="preserve">
<style type="text/css">
	.st0{clip-path:url(#SVGID_2_);}
	.st1{fill:#172B4D;}
	.st2{fill:#FFFFFF;stroke:#36B37E;stroke-width:1.3579;stroke-miterlimit:10;}
	.st3{fill:#FFFFFF;filter:url(#Adobe_OpacityMaskFilter);stroke:#36B37E;stroke-width:1.3579;stroke-miterlimit:10;}
	.st4{mask:url(#mask0_34_2544_1_);}
	.st5{fill:#C5E9DA;}
	.st6{fill:#36B37E;}
	.st7{fill:#C5E9DA;stroke:#36B37E;stroke-width:1.3579;stroke-miterlimit:10;}
</style>
<g>
	<defs>
		<rect id="SVGID_1_" x="-0.27" y="1.13" width="273" height="245"/>
	</defs>
	<clipPath id="SVGID_2_">
		<use xlink:href="#SVGID_1_"  style="overflow:visible;"/>
	</clipPath>
	<g class="st0">
		<path class="st1" d="M164.82,212.2l99.79,33.94H121.43l-18.36-2l-8.9-5.56l30.37-26.37H164.82z"/>
		<path class="st2" d="M151.69,149.89v-5.34c0,0-11.68-23.14-13.35-23.37C136.67,120.96,0.95,64.44,0.95,64.44l51.73,100.69
			l20.47,21.81L151.69,149.89z"/>
		<defs>
			<filter id="Adobe_OpacityMaskFilter" filterUnits="userSpaceOnUse" x="0.5" y="68.56" width="157.75" height="98.47">
				<feColorMatrix  type="matrix" values="1 0 0 0 0  0 1 0 0 0  0 0 1 0 0  0 0 0 1 0"/>
			</filter>
		</defs>
		<mask maskUnits="userSpaceOnUse" x="0.5" y="68.56" width="157.75" height="98.47" id="mask0_34_2544_1_">
			<path class="st3" d="M152.1,150.5v-5.34c0,0-11.68-23.14-13.35-23.37C137.09,121.57,1.36,65.05,1.36,65.05l51.73,100.69
				l20.47,21.81L152.1,150.5z"/>
		</mask>
		<g class="st4">
			<path class="st5" d="M95.06,123.74l-17.02,0.56l-7.79-13.8l-16.35,0.78l7.68,13.46l-16.24,0.56l7.56,13.69l16.35-0.33l16.91-0.45
				l8.23,14.24l17.47-0.11l8.68,14.69h18.36l-9.01-14.91l-8.79-14.69l-17.69,0.45L95.06,123.74z"/>
			<path class="st6" d="M86.94,109.84l-8.01-13.57l-16.46,0.89l7.79,13.35L86.94,109.84z"/>
			<path class="st6" d="M112.53,123.08l-8.46-14.02l-17.13,0.78l8.12,13.91L112.53,123.08z"/>
			<path class="st6" d="M121.65,108.28l-8.57-13.91l-17.24,0.89l8.23,13.8L121.65,108.28z"/>
			<path class="st6" d="M130.44,122.52l-17.91,0.56l8.57,14.35l18.24-0.33l18.69-0.45l-9.23-14.69l-9.01-14.46l-18.13,0.78
				L130.44,122.52z"/>
			<path class="st1" d="M37.99,111.95l15.91-0.67l-7.45-13.35l16.02-0.78L54.9,83.91l-15.8,1l-15.46,1l7.12,12.91L15.41,99.6
				L0.5,100.38l6.79,12.91l15.13-0.67l7.12,13.24l15.8-0.56L37.99,111.95z"/>
			<path class="st6" d="M14.19,126.3l7.01,13.35l15.69-0.33l-7.34-13.46L14.19,126.3z"/>
			<path class="st6" d="M1.84,74.34l6.67,12.57l15.13-1l-7.01-12.68L1.84,74.34z"/>
			<path class="st6" d="M78.93,96.26l16.91-1L87.72,81.8l-7.9-13.24l-16.35,1.22l-16.02,1.22l7.45,12.91l16.24-1L78.93,96.26z"/>
			<path class="st6" d="M122.21,79.57l-17.47,1.11l8.34,13.69l17.8-0.89L122.21,79.57z"/>
			<path class="st6" d="M158.25,106.72l-9.12-14.24l-18.24,1l8.9,14.02L158.25,106.72z"/>
			<path class="st6" d="M36.88,139.32l7.45,13.8l16.24-0.22l-7.68-13.91L36.88,139.32z"/>
		</g>
		<path class="st1" d="M121.43,146.33l-62.3,13.35l-1.56,4.12l13.91,19.03L121.43,146.33z"/>
		<path class="st2" d="M157.03,150.56l61.19-149.2l-39.38,160.55l-4.23,1.45L157.03,150.56z"/>
		<path class="st6" d="M179.17,160.46l-18.24-19.47l-3.89,9.57l17.58,12.79l4.23-1.45L179.17,160.46z"/>
		<path class="st2" d="M174.61,163.35l-12.57-10.68l-19.47-14.8l-49.28,19.8l-2.22,11.9l12.01,17.02L174.61,163.35z"/>
		<path class="st2" d="M149.35,171.48l36.38-11.79l-20.92,52.52l-30.04,1.89L149.35,171.48z"/>
		<path class="st2" d="M110.3,184.05l-7.23,2.56l-3.34,47.51l3.34,10.01l31.71-30.04l14.57-42.61L110.3,184.05z"/>
		<path class="st7" d="M207.65,152.67l62.85,33.94l-160.2-2.56L207.65,152.67z"/>
		<path class="st2" d="M103.07,186.61v-7.79L52.68,109.5L46,120.07l48.17,118.49l5.56-4.45L103.07,186.61z"/>
		<path class="st2" d="M52.68,109.5L46,120.07l-22.47,20.92l17.8-35.94L52.68,109.5z"/>
		<path class="st1" d="M172.83,191.95l-62.52-7.9l65.3,1.11L172.83,191.95z"/>
		<path class="st1" d="M117.09,181.94l-21.8-18.14l-0.89,3.12l8.68,11.9v7.79L117.09,181.94z"/>
		<path class="st7" d="M89.5,227.22l-5.12,6.34l-6.67-6.34L42.89,123.08l3.11-3L89.5,227.22z"/>
	</g>
</g>
</svg>
