<?xml version="1.0" encoding="utf-8"?>
<!-- Generator: Adobe Illustrator 25.0.0, SVG Export Plug-In . SVG Version: 6.00 Build 0)  -->
<svg version="1.1" id="Layer_1" xmlns="http://www.w3.org/2000/svg" xmlns:xlink="http://www.w3.org/1999/xlink" x="0px" y="0px"
	 viewBox="0 0 290 131" style="enable-background:new 0 0 290 131;" xml:space="preserve">
<style type="text/css">
	.st0{fill:#172B4D;}
	.st1{fill:#36B37E;}
	.st2{fill:#FFFFFF;stroke:#36B37E;stroke-width:1.4368;stroke-linejoin:round;stroke-miterlimit:10;}
	.st3{fill:#C5E9DA;stroke:#36B37E;stroke-width:1.4368;stroke-miterlimit:10;}
	
		.st4{fill:#FFFFFF;filter:url(#Adobe_OpacityMaskFilter);stroke:#36B37E;stroke-width:1.4368;stroke-linejoin:round;stroke-miterlimit:10;}
	.st5{mask:url(#mask0_73_397_1_);}
	.st6{fill:#C5E9DA;}
</style>
<path class="st0" d="M49.31,130.51l228.44-2.95l-88.52-24.35l9.98-21.11l56.62-7.77l-14.5-3.36l-38.98-1.74L49.31,130.51z"/>
<path class="st1" d="M175.65,22.72l-6.96,0.12L110.8,1.27l65.43,37.11l10.67-8.81L175.65,22.72z"/>
<path class="st0" d="M175.65,22.72L288.3,2.08L232.03,56.7L175.65,22.72z"/>
<path class="st2" d="M110.8,1.27l112.42,63.9l-25.29,4.64l-61.95,4.52L110.8,1.27z"/>
<path class="st2" d="M223.22,65.16L288.3,2.08l-46.99,68.88L223.22,65.16z"/>
<path class="st2" d="M176.23,38.38l29.12-24l3.02,2.44l-9.17,34.67L176.23,38.38z"/>
<path class="st2" d="M208.37,16.81l26.34,37.34l-11.49,11.02L199.2,51.48L208.37,16.81z"/>
<path class="st2" d="M241.32,70.96l-43.39-1.16l25.29-4.64L241.32,70.96z"/>
<path class="st2" d="M91.42,53.1l-9.28,1.62L0.46,38.26L95.6,73.74l12.41-14.03L91.42,53.1z"/>
<path class="st3" d="M91.42,53.1L237.14,2.08l-63.46,84.07L91.42,53.1z"/>
<path class="st2" d="M0.46,38.26l163.47,60.88l-32.83,11.6l-81.68,18.9L0.46,38.26z"/>
<path class="st2" d="M163.93,99.14l73.21-97.06L189.22,103.2L163.93,99.14z"/>
<path class="st1" d="M95.6,73.74l33.76-37.92l4.52,2.44l-4.87,47.89L95.6,73.74z"/>
<path class="st2" d="M133.88,38.26l42.81,43.95l-12.76,16.93l-34.92-12.99L133.88,38.26z"/>
<path class="st2" d="M189.22,103.2l-58.13,7.54l32.83-11.6L189.22,103.2z"/>
<defs>
	<filter id="Adobe_OpacityMaskFilter" filterUnits="userSpaceOnUse" x="-0.12" y="44.17" width="164.63" height="102.51">
		<feColorMatrix  type="matrix" values="1 0 0 0 0  0 1 0 0 0  0 0 1 0 0  0 0 0 1 0"/>
	</filter>
</defs>
<mask maskUnits="userSpaceOnUse" x="-0.12" y="44.17" width="164.63" height="102.51" id="mask0_73_397_1_">
	<path class="st4" d="M0.26,38.69L163.63,98.9l-32.35,11.14l-81.68,18.9L0.26,38.69z"/>
</mask>
<g class="st5">
	<path class="st6" d="M98.61,101.58l-17.75,0.58l-8.24-14.26l-17.05,0.7l8.01,14.15l-16.82,0.46l7.77,14.26l17.17-0.35l17.52-0.46
		l8.59,14.96l18.33-0.23l9.05,15.31h19.03l-9.28-15.54l-9.17-15.19l-18.56,0.35L98.61,101.58z"/>
	<path class="st6" d="M90.03,87.08l-8.35-14.15l-17.17,0.93l8.12,14.03L90.03,87.08z"/>
	<path class="st1" d="M116.71,101l-8.7-14.73l-17.98,0.81l8.59,14.5L116.71,101z"/>
	<path class="st0" d="M126.34,85.57l-8.93-14.61L99.31,72l8.7,14.26L126.34,85.57z"/>
	<path class="st1" d="M135.39,100.3L116.71,101l9.05,14.96l18.91-0.46l19.49-0.46l-9.63-15.31l-9.4-14.96l-18.79,0.81L135.39,100.3z
		"/>
	<path class="st1" d="M38.98,89.28l16.59-0.7l-7.77-13.8l16.71-0.93l-7.89-13.8L40.14,61.1l-16.13,1.04l7.43,13.45l-15.89,0.93
		l-15.66,0.81l7.08,13.34l15.89-0.7l7.43,13.8l16.47-0.58L38.98,89.28z"/>
	<path class="st1" d="M81.68,72.93L99.31,72l-8.47-14.03l-8.24-13.8l-17.05,1.28l-16.71,1.16l7.77,13.45l16.94-1.04L81.68,72.93z"/>
	<path class="st1" d="M126.92,55.65l-18.21,1.16l8.7,14.15l18.56-0.93L126.92,55.65z"/>
	<path class="st1" d="M164.51,83.83l-9.63-14.84l-18.91,1.04l9.17,14.73L164.51,83.83z"/>
	<path class="st1" d="M37.82,117.81l7.77,14.38l16.94-0.23l-8.01-14.5L37.82,117.81z"/>
</g>
</svg>
